<svg xmlns="http://www.w3.org/2000/svg" width="229" height="110" viewBox="0 0 229 110"><defs><mask id="piyob" width="2" height="2" x="-1" y="-1"><path fill="#fff" d="M35 20h166v47H35z"/><path d="M58.49 19.998h119.02c12.973 0 23.49 10.522 23.49 23.5 0 12.98-10.517 23.5-23.49 23.5H58.49c-12.973 0-23.49-10.52-23.49-23.5 0-12.978 10.517-23.5 23.49-23.5z"/></mask><filter id="piyoa" width="269.5" height="158.5" x="-18.5" y="-30" filterUnits="userSpaceOnUse"><feOffset dx="-3.5" dy="11.5" in="SourceGraphic" result="FeOffset1030Out"/><feGaussianBlur in="FeOffset1030Out" result="FeGaussianBlur1031Out" stdDeviation="16 16"/></filter></defs><g><g><g filter="url(#piyoa)"><path fill="none" d="M58.49 19.998h119.02c12.973 0 23.49 10.522 23.49 23.5 0 12.98-10.517 23.5-23.49 23.5H58.49c-12.973 0-23.49-10.52-23.49-23.5 0-12.978 10.517-23.5 23.49-23.5z" mask="url(&quot;#piyob&quot;)"/><path fill="#000101" fill-opacity=".2" d="M58.49 19.998h119.02c12.973 0 23.49 10.522 23.49 23.5 0 12.98-10.517 23.5-23.49 23.5H58.49c-12.973 0-23.49-10.52-23.49-23.5 0-12.978 10.517-23.5 23.49-23.5z"/></g><path fill="#1a9bdc" d="M58.49 19.998h119.02c12.973 0 23.49 10.522 23.49 23.5 0 12.98-10.517 23.5-23.49 23.5H58.49c-12.973 0-23.49-10.52-23.49-23.5 0-12.978 10.517-23.5 23.49-23.5z"/></g></g></svg>